<?xml version="1.0" encoding="UTF-8" standalone="no"?>
<!-- Created with Inkscape (http://www.inkscape.org/) -->

<svg
   width="54.769226mm"
   height="55.031258mm"
   viewBox="0 0 54.76922 55.031256"
   version="1.1"
   id="svg2069"
   inkscape:version="1.1.2 (b8e25be833, 2022-02-05)"
   sodipodi:docname="icon.svg"
   xmlns:inkscape="http://www.inkscape.org/namespaces/inkscape"
   xmlns:sodipodi="http://sodipodi.sourceforge.net/DTD/sodipodi-0.dtd"
   xmlns="http://www.w3.org/2000/svg"
   xmlns:svg="http://www.w3.org/2000/svg">
  <sodipodi:namedview
     id="namedview2071"
     pagecolor="#ffffff"
     bordercolor="#666666"
     borderopacity="1.0"
     inkscape:pageshadow="2"
     inkscape:pageopacity="0.0"
     inkscape:pagecheckerboard="true"
     inkscape:document-units="px"
     showgrid="false"
     inkscape:zoom="0.77771465"
     inkscape:cx="239.80518"
     inkscape:cy="158.7986"
     inkscape:window-width="1804"
     inkscape:window-height="1082"
     inkscape:window-x="499"
     inkscape:window-y="109"
     inkscape:window-maximized="0"
     inkscape:current-layer="layer1"
     inkscape:snap-page="false"
     fit-margin-top="5"
     fit-margin-left="5"
     fit-margin-right="5"
     fit-margin-bottom="5" />
  <defs
     id="defs2066" />
  <g
     inkscape:label="레이어 1"
     inkscape:groupmode="layer"
     id="layer1"
     transform="translate(-78.237037,-106.70792)">
    <g
       id="g753"
       transform="matrix(0.35277777,0,0,-0.35277777,105.08915,115.16925)">
      <path
         d="m 0,0 c -30.82,0 -55.892,-25.072 -55.892,-55.892 0,-30.823 25.072,-55.898 55.892,-55.898 30.821,0 55.897,25.075 55.897,55.898 C 55.897,-25.072 30.821,0 0,0 m 0,-117.836 c -34.157,0 -61.943,27.788 -61.943,61.944 0,34.155 27.786,61.941 61.943,61.941 34.154,0 61.944,-27.786 61.944,-61.941 0,-34.156 -27.79,-61.944 -61.944,-61.944"
         style="fill:#d2b3a8;fill-opacity:1;fill-rule:nonzero;stroke:none"
         id="path755" />
    </g>
    <g
       id="g757"
       transform="matrix(0.35277777,0,0,-0.35277777,88.852408,140.87571)">
      <path
         d="m 0,0 c -1.668,0 -3.026,1.354 -3.026,3.025 v 76.629 c 0,1.3 0.828,2.456 2.061,2.868 1.234,0.415 2.591,-0.004 3.375,-1.042 L 53.208,14.369 c 1.008,-1.334 0.747,-3.228 -0.593,-4.236 -1.327,-1.007 -3.222,-0.747 -4.233,0.585 L 3.021,70.647 V 3.025 C 3.021,1.354 1.669,0 0,0"
         style="fill:#d2b3a8;fill-opacity:1;fill-rule:nonzero;stroke:none"
         id="path759" />
    </g>
    <g
       id="g761"
       transform="matrix(0.35277777,0,0,-0.35277777,106.9426,156.61358)">
      <path
         d="M 0,0 C -1.677,0 -3.021,1.356 -3.021,3.021 V 105.61 c 0,1.672 1.344,3.028 3.021,3.028 1.669,0 3.021,-1.356 3.021,-3.028 V 3.021 C 3.021,1.356 1.669,0 0,0"
         style="fill:#d2b3a8;fill-opacity:1;fill-rule:nonzero;stroke:none"
         id="path763" />
    </g>
    <g
       id="g765"
       transform="matrix(0.35277777,0,0,-0.35277777,106.9395,140.03564)">
      <path
         d="m 0,0 c -1.566,0 -2.889,1.208 -3.008,2.793 -0.129,1.662 1.109,3.115 2.779,3.248 0.126,0.008 6.533,0.597 14.295,4.841 10.421,5.691 18.261,14.935 23.314,27.475 0.623,1.552 2.386,2.3 3.935,1.675 1.549,-0.623 2.299,-2.388 1.677,-3.937 C 35.968,18.664 24.803,9.788 16.679,5.416 7.788,0.633 0.542,0.032 0.238,0.008 0.158,0 0.077,0 0,0"
         style="fill:#d2b3a8;fill-opacity:1;fill-rule:nonzero;stroke:none"
         id="path767" />
    </g>
    <g
       id="g769"
       transform="matrix(0.35277777,0,0,-0.35277777,126.93861,153.20451)">
      <path
         d="m 0,0 c -1.412,0 -2.676,0.997 -2.961,2.437 -2.812,14.102 -9.273,25.783 -19.205,34.719 -7.451,6.7 -14.186,9.265 -14.24,9.293 -1.571,0.582 -2.365,2.322 -1.784,3.884 0.585,1.565 2.317,2.361 3.879,1.785 C -33.095,51.67 -4.417,40.689 2.967,3.615 3.295,1.978 2.232,0.384 0.589,0.06 0.393,0.02 0.196,0 0,0"
         style="fill:#d2b3a8;fill-opacity:1;fill-rule:nonzero;stroke:none"
         id="path771" />
    </g>
    <g
       id="g773"
       transform="matrix(0.35277777,0,0,-0.35277777,110.96646,120.42268)">
      <path
         d="m 0,0 h -22.822 c -1.664,0 -3.022,1.353 -3.022,3.022 0,1.672 1.358,3.027 3.022,3.027 L 0,6.049 C 1.674,6.049 3.031,4.694 3.031,3.022 3.031,1.353 1.674,0 0,0"
         style="fill:#d2b3a8;fill-opacity:1;fill-rule:nonzero;stroke:none"
         id="path775" />
    </g>
  </g>
</svg>
