<?xml version="1.0" encoding="UTF-8" standalone="no"?>
<!-- Created with Inkscape (http://www.inkscape.org/) -->

<svg
   width="98.969643mm"
   height="83.584175mm"
   viewBox="0 0 98.969632 83.584173"
   version="1.1"
   id="svg2069"
   inkscape:version="1.1.2 (b8e25be833, 2022-02-05)"
   sodipodi:docname="logo.svg"
   xmlns:inkscape="http://www.inkscape.org/namespaces/inkscape"
   xmlns:sodipodi="http://sodipodi.sourceforge.net/DTD/sodipodi-0.dtd"
   xmlns="http://www.w3.org/2000/svg"
   xmlns:svg="http://www.w3.org/2000/svg">
  <sodipodi:namedview
     id="namedview2071"
     pagecolor="#ffffff"
     bordercolor="#666666"
     borderopacity="1.0"
     inkscape:pageshadow="2"
     inkscape:pageopacity="0.0"
     inkscape:pagecheckerboard="true"
     inkscape:document-units="px"
     showgrid="false"
     inkscape:zoom="0.77771465"
     inkscape:cx="-566.40311"
     inkscape:cy="158.7986"
     inkscape:window-width="1804"
     inkscape:window-height="1082"
     inkscape:window-x="499"
     inkscape:window-y="109"
     inkscape:window-maximized="0"
     inkscape:current-layer="layer1"
     inkscape:snap-page="false"
     fit-margin-top="5"
     fit-margin-left="5"
     fit-margin-right="5"
     fit-margin-bottom="5" />
  <defs
     id="defs2066" />
  <g
     inkscape:label="레이어 1"
     inkscape:groupmode="layer"
     id="layer1"
     transform="translate(-55.46879,-106.70791)">
    <g
       id="g1993"
       transform="matrix(0.35277777,0,0,-0.35277777,-81.054715,524.08056)">
      <g
         id="g653"
         transform="translate(426.8267,973.1992)">
        <path
           d="M 0,0 3.798,-6.6 C 3.9,-6.764 4.011,-6.967 4.13,-7.216 4.251,-7.468 4.373,-7.735 4.489,-8.023 V 0 h 1.25 V -9.79 H 4.194 l -3.801,6.568 c -0.099,0.183 -0.21,0.397 -0.334,0.638 -0.124,0.245 -0.247,0.517 -0.359,0.805 V -9.79 H -1.55 V 0 Z"
           style="fill:#d2b3a8;fill-opacity:1;fill-rule:nonzero;stroke:none"
           id="path655" />
      </g>
      <g
         id="g657"
         transform="translate(441.3872,968.9595)">
        <path
           d="M 0,0 4.169,-5.55 H 2.458 l -3.379,4.577 -1.071,-1.157 v -3.42 h -1.345 v 9.79 h 1.345 V -0.446 L 2.292,4.24 h 1.644 z"
           style="fill:#d2b3a8;fill-opacity:1;fill-rule:nonzero;stroke:none"
           id="path659" />
      </g>
      <g
         id="g661"
         transform="translate(461.4624,968.2427)">
        <path
           d="m 0,0 c 0,0.19 -0.052,0.379 -0.146,0.57 -0.093,0.191 -0.23,0.36 -0.406,0.507 -0.178,0.15 -0.384,0.271 -0.622,0.359 -0.243,0.094 -0.5,0.139 -0.781,0.139 -0.564,0 -0.998,-0.195 -1.31,-0.585 C -3.577,0.601 -3.739,0.055 -3.739,-0.651 V -1.56 c 0,-0.707 0.162,-1.257 0.477,-1.646 0.321,-0.388 0.757,-0.58 1.307,-0.58 0.273,0 0.521,0.041 0.76,0.126 0.234,0.086 0.439,0.211 0.615,0.376 0.178,0.162 0.315,0.36 0.426,0.591 C -0.052,-2.464 0,-2.205 0,-1.914 Z m 0.012,-3.912 c -0.209,-0.38 -0.508,-0.646 -0.887,-0.797 -0.385,-0.154 -0.807,-0.231 -1.268,-0.231 -0.948,0 -1.66,0.271 -2.155,0.819 -0.491,0.547 -0.739,1.328 -0.739,2.343 v 1.315 c 0,0.499 0.073,0.945 0.215,1.346 0.148,0.395 0.349,0.73 0.61,1.003 0.26,0.271 0.566,0.478 0.926,0.625 0.362,0.143 0.759,0.22 1.195,0.22 0.567,0 1.02,-0.105 1.352,-0.297 C -0.41,2.24 -0.166,2.038 -0.018,1.82 V 5.428 H 1.297 V -4.833 H 0.042 v 0.921 z"
           style="fill:#d2b3a8;fill-opacity:1;fill-rule:nonzero;stroke:none"
           id="path663" />
      </g>
      <g
         id="g665"
         transform="translate(470.9448,969.8447)">
        <path
           d="m 0,0 c -0.27,0 -0.518,-0.049 -0.751,-0.145 -0.231,-0.091 -0.428,-0.226 -0.594,-0.393 -0.166,-0.17 -0.299,-0.368 -0.397,-0.61 -0.094,-0.241 -0.141,-0.499 -0.141,-0.781 v -0.192 h 3.718 v 0.248 c 0,0.567 -0.162,1.021 -0.486,1.363 C 1.02,-0.171 0.572,0 0,0 M 2.936,-5.729 C 2.611,-5.955 2.223,-6.147 1.767,-6.308 1.314,-6.461 0.75,-6.542 0.067,-6.542 c -0.46,0 -0.886,0.066 -1.274,0.196 -0.397,0.13 -0.739,0.333 -1.038,0.611 -0.295,0.277 -0.525,0.631 -0.693,1.067 -0.166,0.433 -0.25,0.946 -0.25,1.546 v 0.843 c 0,0.557 0.077,1.05 0.239,1.477 0.158,0.427 0.379,0.781 0.671,1.067 0.28,0.281 0.618,0.497 1.006,0.644 0.388,0.143 0.815,0.22 1.272,0.22 0.956,0 1.711,-0.292 2.27,-0.871 0.564,-0.582 0.844,-1.397 0.844,-2.46 v -0.987 h -4.997 v -0.057 c 0,-0.706 0.185,-1.241 0.555,-1.604 0.371,-0.367 0.854,-0.552 1.456,-0.552 0.486,0 0.905,0.059 1.254,0.174 0.346,0.118 0.682,0.282 0.995,0.489 z"
           style="fill:#d2b3a8;fill-opacity:1;fill-rule:nonzero;stroke:none"
           id="path667" />
      </g>
      <g
         id="g669"
         transform="translate(483.0688,969.5439)">
        <path
           d="m 0,0 c -0.124,0.054 -0.265,0.099 -0.414,0.13 -0.149,0.033 -0.315,0.047 -0.5,0.047 -0.238,0 -0.473,-0.047 -0.695,-0.145 -0.222,-0.092 -0.413,-0.228 -0.576,-0.403 -0.168,-0.18 -0.294,-0.389 -0.397,-0.634 -0.094,-0.241 -0.146,-0.508 -0.146,-0.798 v -4.332 h -1.313 v 7.426 h 1.267 v -1.18 h 0.017 c 0.217,0.414 0.5,0.736 0.849,0.969 0.346,0.23 0.794,0.35 1.34,0.35 0.325,0 0.645,-0.054 0.961,-0.152 z"
           style="fill:#d2b3a8;fill-opacity:1;fill-rule:nonzero;stroke:none"
           id="path671" />
      </g>
      <g
         id="g673"
         transform="translate(498.1372,963.4092)">
        <path
           d="m 0,0 h -1.318 v 4.454 c 0,1.273 -0.469,1.916 -1.4,1.916 -0.21,0 -0.414,-0.035 -0.619,-0.105 C -3.542,6.199 -3.726,6.092 -3.892,5.954 -4.05,5.811 -4.187,5.629 -4.288,5.409 -4.392,5.186 -4.442,4.927 -4.442,4.628 V 0 h -1.315 v 4.454 c 0,1.273 -0.469,1.916 -1.399,1.916 -0.21,0 -0.414,-0.035 -0.619,-0.1 C -7.98,6.21 -8.159,6.111 -8.322,5.975 -8.483,5.838 -8.62,5.665 -8.727,5.45 -8.829,5.237 -8.876,4.987 -8.876,4.699 V 0 h -1.319 v 7.426 h 1.301 V 6.423 h 0.018 c 0.141,0.324 0.38,0.595 0.708,0.813 0.333,0.215 0.755,0.328 1.263,0.328 0.505,0 0.935,-0.108 1.302,-0.322 0.363,-0.213 0.645,-0.516 0.836,-0.917 0.235,0.364 0.53,0.656 0.892,0.889 0.354,0.231 0.828,0.35 1.417,0.35 0.765,0 1.37,-0.234 1.806,-0.702 C -0.222,6.397 0,5.731 0,4.874 Z"
           style="fill:#d2b3a8;fill-opacity:1;fill-rule:nonzero;stroke:none"
           id="path675" />
      </g>
      <g
         id="g677"
         transform="translate(507.603,966.792)">
        <path
           d="M 0,0 H -1.853 C -2.372,0 -2.739,-0.099 -2.961,-0.299 -3.184,-0.5 -3.295,-0.775 -3.295,-1.129 v -0.188 c 0,-0.363 0.129,-0.627 0.381,-0.787 0.255,-0.163 0.559,-0.246 0.908,-0.246 0.329,0 0.607,0.038 0.85,0.118 0.243,0.074 0.461,0.19 0.657,0.345 0.179,0.132 0.312,0.288 0.389,0.468 0.077,0.176 0.11,0.405 0.11,0.685 z m -2.143,-3.489 c -0.751,0 -1.339,0.185 -1.783,0.556 -0.435,0.37 -0.658,0.882 -0.658,1.535 v 0.365 c 0,0.631 0.214,1.15 0.641,1.547 0.426,0.399 1.109,0.597 2.06,0.597 H 0 v 0.433 c 0,0.5 -0.119,0.867 -0.35,1.107 -0.243,0.24 -0.635,0.36 -1.177,0.36 -0.436,0 -0.817,-0.069 -1.136,-0.205 C -2.982,2.673 -3.32,2.494 -3.662,2.264 l -0.652,0.977 c 0.362,0.254 0.771,0.473 1.224,0.661 0.452,0.184 0.978,0.28 1.571,0.28 0.417,0 0.798,-0.056 1.139,-0.161 C -0.033,3.919 0.264,3.766 0.512,3.561 0.764,3.358 0.956,3.108 1.097,2.816 1.237,2.52 1.307,2.187 1.307,1.817 v -5.2 H 0.042 v 0.897 H 0.03 c -0.073,-0.135 -0.167,-0.261 -0.29,-0.376 -0.124,-0.111 -0.257,-0.209 -0.402,-0.29 -0.199,-0.107 -0.414,-0.188 -0.644,-0.252 -0.231,-0.055 -0.511,-0.085 -0.837,-0.085"
           style="fill:#d2b3a8;fill-opacity:1;fill-rule:nonzero;stroke:none"
           id="path679" />
      </g>
      <g
         id="g681"
         transform="translate(514.6108,969.708)">
        <path
           d="M 0,0 H -1.221 V 1.127 H 0 V 2.999 H 1.314 V 1.127 H 3.269 V 0 H 1.314 v -4.222 c 0,-0.224 0.026,-0.408 0.073,-0.547 0.039,-0.143 0.107,-0.25 0.196,-0.322 0.086,-0.072 0.184,-0.119 0.304,-0.147 0.114,-0.028 0.243,-0.041 0.379,-0.041 0.329,0 0.652,0.058 0.982,0.175 l 0.2,-1.056 C 3.29,-6.224 3.084,-6.279 2.834,-6.33 2.586,-6.379 2.326,-6.405 2.064,-6.405 1.352,-6.405 0.836,-6.229 0.498,-5.876 0.166,-5.522 0,-4.974 0,-4.222 Z"
           style="fill:#d2b3a8;fill-opacity:1;fill-rule:nonzero;stroke:none"
           id="path683" />
      </g>
      <g
         id="g685"
         transform="translate(525.6167,964.457)">
        <path
           d="M 0,0 C 0.59,0 1.066,0.189 1.434,0.574 1.797,0.958 1.98,1.545 1.98,2.335 V 3.026 C 1.98,3.809 1.797,4.4 1.434,4.782 1.066,5.166 0.59,5.36 0,5.36 -0.584,5.36 -1.067,5.166 -1.434,4.782 -1.797,4.4 -1.984,3.809 -1.984,3.026 V 2.335 c 0,-0.79 0.187,-1.377 0.55,-1.761 C -1.067,0.189 -0.584,0 0,0 M 0,6.517 C 1.02,6.517 1.826,6.22 2.424,5.631 3.018,5.042 3.316,4.21 3.316,3.135 V 2.226 C 3.316,1.148 3.018,0.313 2.424,-0.271 1.826,-0.858 1.02,-1.154 0,-1.154 c -1.028,0 -1.826,0.296 -2.42,0.883 -0.594,0.584 -0.895,1.419 -0.895,2.497 v 0.909 c 0,1.086 0.301,1.92 0.895,2.503 0.594,0.582 1.392,0.879 2.42,0.879"
           style="fill:#d2b3a8;fill-opacity:1;fill-rule:nonzero;stroke:none"
           id="path687" />
      </g>
      <path
         d="m 535.236,963.409 h -1.311 v 10.262 h 1.311 z"
         style="fill:#d2b3a8;fill-opacity:1;fill-rule:nonzero;stroke:none"
         id="path689" />
      <g
         id="g691"
         transform="translate(543.5444,964.457)">
        <path
           d="M 0,0 C 0.585,0 1.067,0.189 1.434,0.574 1.801,0.958 1.98,1.545 1.98,2.335 V 3.026 C 1.98,3.809 1.801,4.4 1.434,4.782 1.067,5.166 0.585,5.36 0,5.36 -0.589,5.36 -1.066,5.166 -1.434,4.782 -1.797,4.4 -1.979,3.809 -1.979,3.026 V 2.335 c 0,-0.79 0.182,-1.377 0.545,-1.761 C -1.066,0.189 -0.589,0 0,0 M 0,6.517 C 1.024,6.517 1.831,6.22 2.424,5.631 3.018,5.042 3.313,4.21 3.313,3.135 V 2.226 C 3.313,1.148 3.018,0.313 2.424,-0.271 1.831,-0.858 1.024,-1.154 0,-1.154 c -1.023,0 -1.826,0.296 -2.42,0.883 -0.593,0.584 -0.891,1.419 -0.891,2.497 v 0.909 c 0,1.086 0.298,1.92 0.891,2.503 0.594,0.582 1.397,0.879 2.42,0.879"
           style="fill:#d2b3a8;fill-opacity:1;fill-rule:nonzero;stroke:none"
           id="path693" />
      </g>
      <g
         id="g695"
         transform="translate(556.5229,968.2427)">
        <path
           d="m 0,0 c 0,0.19 -0.047,0.379 -0.146,0.57 -0.093,0.191 -0.23,0.36 -0.41,0.507 -0.174,0.15 -0.38,0.271 -0.623,0.359 C -1.412,1.53 -1.678,1.575 -1.955,1.575 -2.519,1.575 -2.958,1.38 -3.27,0.99 -3.58,0.601 -3.739,0.055 -3.739,-0.651 v -0.776 c 0,-0.703 0.167,-1.251 0.482,-1.639 0.312,-0.391 0.747,-0.585 1.302,-0.585 0.269,0 0.524,0.042 0.76,0.128 0.234,0.085 0.439,0.209 0.615,0.373 0.174,0.164 0.315,0.36 0.417,0.591 C -0.056,-2.328 0,-2.068 0,-1.778 Z m 1.305,-4.735 c 0,-2.082 -1.109,-3.122 -3.316,-3.122 -0.508,0 -0.972,0.068 -1.382,0.216 -0.419,0.144 -0.781,0.333 -1.089,0.571 l 0.603,1.029 c 0.238,-0.181 0.528,-0.329 0.858,-0.448 0.328,-0.115 0.677,-0.175 1.049,-0.175 0.644,0 1.13,0.156 1.464,0.467 0.323,0.314 0.49,0.8 0.49,1.462 v 0.906 c -0.209,-0.352 -0.499,-0.603 -0.879,-0.748 -0.384,-0.153 -0.798,-0.231 -1.246,-0.231 -0.948,0 -1.66,0.278 -2.155,0.824 -0.491,0.546 -0.738,1.325 -0.738,2.34 v 1.181 c 0,0.499 0.072,0.945 0.213,1.346 0.145,0.395 0.345,0.73 0.606,1.003 0.26,0.271 0.568,0.478 0.93,0.625 0.363,0.143 0.756,0.22 1.191,0.22 0.572,0 1.025,-0.105 1.353,-0.297 C -0.41,2.24 -0.176,2.038 -0.018,1.82 v 0.772 h 1.323 z"
           style="fill:#d2b3a8;fill-opacity:1;fill-rule:nonzero;stroke:none"
           id="path697" />
      </g>
      <g
         id="g699"
         transform="translate(565.7612,964.9053)">
        <path
           d="m 0,0 1.955,5.93 h 1.387 l -3.858,-10.49 -1.195,0.42 0.969,2.537 -2.701,7.533 h 1.421 L -0.051,0 Z"
           style="fill:#d2b3a8;fill-opacity:1;fill-rule:nonzero;stroke:none"
           id="path701" />
      </g>
      <g
         id="g703"
         transform="translate(583.0679,970.9736)">
        <path
           d="M 0,0 C 0.613,0 1.122,-0.079 1.514,-0.23 1.906,-0.388 2.257,-0.583 2.563,-0.817 L 1.945,-1.81 C 1.595,-1.556 1.279,-1.387 0.984,-1.3 0.686,-1.212 0.362,-1.171 0,-1.171 c -0.245,0 -0.479,-0.041 -0.705,-0.124 -0.231,-0.081 -0.427,-0.209 -0.598,-0.385 -0.17,-0.172 -0.31,-0.403 -0.409,-0.672 -0.107,-0.273 -0.163,-0.597 -0.163,-0.979 v -0.935 c 0,-0.396 0.056,-0.74 0.163,-1.024 0.099,-0.285 0.239,-0.514 0.418,-0.689 0.171,-0.181 0.375,-0.307 0.61,-0.39 0.231,-0.079 0.469,-0.12 0.712,-0.12 0.484,0 0.893,0.06 1.213,0.188 0.323,0.128 0.618,0.29 0.875,0.487 L 2.76,-6.817 C 2.491,-7.031 2.142,-7.231 1.697,-7.408 1.254,-7.585 0.694,-7.671 0.012,-7.671 c -1.033,0 -1.826,0.296 -2.381,0.896 -0.556,0.595 -0.828,1.43 -0.828,2.497 v 0.937 c 0,0.535 0.072,1.004 0.22,1.418 0.155,0.41 0.377,0.76 0.651,1.044 0.276,0.288 0.614,0.502 0.998,0.652 C -0.936,-0.079 -0.488,0 0,0"
           style="fill:#d2b3a8;fill-opacity:1;fill-rule:nonzero;stroke:none"
           id="path705" />
      </g>
      <path
         d="m 591.726,963.409 h -1.315 v 10.262 h 1.315 z"
         style="fill:#d2b3a8;fill-opacity:1;fill-rule:nonzero;stroke:none"
         id="path707" />
      <path
         d="m 598.459,963.409 h -1.314 v 7.426 h 1.314 z m 0.035,8.647 h -1.391 v 1.438 h 1.391 z"
         style="fill:#d2b3a8;fill-opacity:1;fill-rule:nonzero;stroke:none"
         id="path709" />
      <g
         id="g711"
         transform="translate(609.9917,963.4092)">
        <path
           d="m 0,0 h -1.314 v 4.615 c 0,0.622 -0.129,1.076 -0.393,1.36 -0.265,0.279 -0.671,0.419 -1.221,0.419 -0.231,0 -0.453,-0.037 -0.671,-0.114 C -3.82,6.205 -4.021,6.09 -4.199,5.938 -4.371,5.789 -4.52,5.602 -4.635,5.375 -4.746,5.149 -4.798,4.896 -4.798,4.603 V 0 H -6.117 V 7.426 H -4.84 V 6.491 h 0.009 c 0.229,0.342 0.524,0.606 0.895,0.794 0.372,0.184 0.816,0.279 1.332,0.279 0.359,0 0.7,-0.055 1.016,-0.168 0.32,-0.107 0.589,-0.267 0.828,-0.487 0.239,-0.215 0.418,-0.49 0.559,-0.828 C -0.064,5.747 0,5.358 0,4.917 Z"
           style="fill:#d2b3a8;fill-opacity:1;fill-rule:nonzero;stroke:none"
           id="path713" />
      </g>
      <path
         d="m 616.619,963.409 h -1.318 v 7.426 h 1.318 z m 0.038,8.647 h -1.395 v 1.438 h 1.395 z"
         style="fill:#d2b3a8;fill-opacity:1;fill-rule:nonzero;stroke:none"
         id="path715" />
      <g
         id="g717"
         transform="translate(624.8511,970.9736)">
        <path
           d="M 0,0 C 0.623,0 1.123,-0.079 1.514,-0.23 1.911,-0.388 2.27,-0.583 2.568,-0.817 L 1.946,-1.81 C 1.604,-1.556 1.28,-1.387 0.99,-1.3 0.695,-1.212 0.366,-1.171 0,-1.171 c -0.24,0 -0.474,-0.041 -0.696,-0.124 -0.23,-0.081 -0.426,-0.209 -0.601,-0.385 -0.171,-0.172 -0.312,-0.403 -0.414,-0.672 -0.107,-0.273 -0.158,-0.597 -0.158,-0.979 v -0.935 c 0,-0.396 0.051,-0.74 0.158,-1.024 0.102,-0.285 0.243,-0.514 0.422,-0.689 0.17,-0.181 0.38,-0.307 0.606,-0.39 0.23,-0.079 0.469,-0.12 0.716,-0.12 0.488,0 0.893,0.06 1.217,0.188 0.32,0.128 0.605,0.29 0.875,0.487 L 2.761,-6.817 C 2.496,-7.031 2.143,-7.231 1.698,-7.408 1.259,-7.585 0.699,-7.671 0.018,-7.671 c -1.026,0 -1.823,0.296 -2.383,0.896 -0.555,0.595 -0.831,1.43 -0.831,2.497 v 0.937 c 0,0.535 0.076,1.004 0.229,1.418 0.151,0.41 0.367,0.76 0.646,1.044 0.273,0.288 0.61,0.502 1.006,0.652 C -0.922,-0.079 -0.482,0 0,0"
           style="fill:#d2b3a8;fill-opacity:1;fill-rule:nonzero;stroke:none"
           id="path719" />
      </g>
      <g
         id="g721"
         transform="translate(413.3442,967.6338)">
        <path
           d="m 0,0 c 0,-0.478 -0.384,-0.864 -0.866,-0.864 -0.477,0 -0.862,0.386 -0.862,0.864 0,0.479 0.385,0.866 0.862,0.866 C -0.384,0.866 0,0.479 0,0"
           style="fill:#d2b3a8;fill-opacity:1;fill-rule:nonzero;stroke:none"
           id="path723" />
      </g>
      <g
         id="g725"
         transform="translate(643.687,967.6338)">
        <path
           d="m 0,0 c 0,-0.478 -0.388,-0.864 -0.861,-0.864 -0.483,0 -0.871,0.386 -0.871,0.864 0,0.479 0.388,0.866 0.871,0.866 C -0.388,0.866 0,0.479 0,0"
           style="fill:#d2b3a8;fill-opacity:1;fill-rule:nonzero;stroke:none"
           id="path727" />
      </g>
      <g
         id="g729"
         transform="translate(427.355,997.5972)">
        <path
           d="m 0,0 v 8.612 h -6.76 v 3.456 H 0 V 22.464 H 3.943 V 0 Z m 0.201,-7.799 c 0,0.461 -0.166,0.928 -0.5,1.399 -0.337,0.476 -0.823,0.905 -1.45,1.285 -0.627,0.378 -1.408,0.69 -2.339,0.933 -0.922,0.243 -1.989,0.367 -3.191,0.367 -1.209,0 -2.271,-0.124 -3.201,-0.367 -0.922,-0.243 -1.704,-0.555 -2.335,-0.933 -0.623,-0.38 -1.11,-0.809 -1.447,-1.285 -0.334,-0.471 -0.5,-0.938 -0.5,-1.399 v -0.975 c 0,-0.457 0.166,-0.929 0.5,-1.402 0.337,-0.472 0.824,-0.899 1.447,-1.279 0.631,-0.379 1.413,-0.691 2.335,-0.934 0.93,-0.243 1.992,-0.365 3.201,-0.365 1.202,0 2.269,0.122 3.191,0.365 0.931,0.243 1.712,0.555 2.339,0.934 0.627,0.38 1.113,0.807 1.45,1.279 0.334,0.473 0.5,0.945 0.5,1.402 z m -18.863,0.326 c 0,0.92 0.248,1.807 0.743,2.661 0.499,0.852 1.229,1.592 2.193,2.215 0.964,0.621 2.155,1.125 3.577,1.504 1.425,0.376 3.042,0.566 4.87,0.566 1.821,0 3.442,-0.19 4.864,-0.566 1.426,-0.379 2.616,-0.883 3.58,-1.504 0.961,-0.623 1.694,-1.363 2.193,-2.215 0.496,-0.854 0.744,-1.741 0.744,-2.661 v -1.625 c 0,-0.946 -0.248,-1.842 -0.744,-2.68 -0.499,-0.842 -1.232,-1.571 -2.193,-2.194 -0.964,-0.623 -2.154,-1.123 -3.58,-1.502 -1.422,-0.38 -3.043,-0.57 -4.864,-0.57 -1.828,0 -3.445,0.19 -4.87,0.57 -1.422,0.379 -2.613,0.879 -3.577,1.502 -0.964,0.623 -1.694,1.352 -2.193,2.194 -0.495,0.838 -0.743,1.734 -0.743,2.68 z m 3.657,15.312 c -0.136,-0.347 -0.452,-0.832 -0.959,-1.442 -0.513,-0.606 -1.089,-1.18 -1.737,-1.722 -0.85,-0.761 -1.81,-1.56 -2.872,-2.401 -1.054,-0.838 -2.147,-1.649 -3.279,-2.434 l -2.334,2.885 c 1.29,0.92 2.501,1.819 3.624,2.696 1.126,0.884 2.052,1.676 2.778,2.382 0.481,0.487 0.892,0.962 1.241,1.421 0.351,0.459 0.624,0.933 0.824,1.419 0.205,0.489 0.355,1.018 0.444,1.583 0.093,0.57 0.141,1.223 0.141,1.955 v 0.69 h -8.001 v 3.452 h 8.001 v 4.427 h 4.025 v -4.427 h 7.476 v -3.452 h -7.476 v -0.528 c 0,-0.625 0.024,-1.186 0.076,-1.688 0.051,-0.499 0.154,-0.967 0.304,-1.402 0.144,-0.435 0.353,-0.846 0.619,-1.241 0.272,-0.388 0.635,-0.788 1.091,-1.195 0.935,-0.866 1.929,-1.699 2.975,-2.497 1.046,-0.802 2.168,-1.592 3.38,-2.377 L -6.917,1.016 c -1.046,0.731 -2.027,1.451 -2.94,2.155 -0.911,0.704 -1.848,1.463 -2.809,2.276 -0.623,0.511 -1.126,0.965 -1.511,1.36 -0.388,0.392 -0.648,0.735 -0.786,1.032 z"
           style="fill:#d2b3a8;fill-opacity:1;fill-rule:nonzero;stroke:none"
           id="path731" />
      </g>
      <g
         id="g733"
         transform="translate(474.2856,1008.1616)">
        <path
           d="M 0,0 H -5.271 V -9.139 H -9.209 V 11.9 h 3.938 V 3.495 H 0 Z m -23.928,-22.102 h 14.719 v 7.723 h -14.719 z m 18.657,-3.41 h -22.596 v 14.544 h 22.596 z m -6.912,19.906 c -1.425,-0.191 -2.75,-0.341 -3.986,-0.448 -1.233,-0.109 -2.6,-0.196 -4.098,-0.264 -1.502,-0.069 -3.248,-0.113 -5.232,-0.141 -1.983,-0.026 -4.42,-0.041 -7.322,-0.041 V 9.707 h 17.173 V 6.254 h -13.265 v -9.303 c 2.058,0 3.807,0.014 5.245,0.042 1.435,0.026 2.74,0.064 3.923,0.124 1.182,0.051 2.32,0.126 3.414,0.222 1.101,0.094 2.351,0.222 3.742,0.386 z"
           style="fill:#d2b3a8;fill-opacity:1;fill-rule:nonzero;stroke:none"
           id="path735" />
      </g>
      <g
         id="g737"
         transform="translate(485.7485,1016.5303)">
        <path
           d="m 0,0 11.259,-19.744 c 0.294,-0.489 0.622,-1.101 0.984,-1.85 0.363,-0.745 0.718,-1.55 1.064,-2.413 V 0 h 3.704 V -29.291 H 12.428 L 1.165,-9.63 c -0.295,0.542 -0.623,1.18 -0.99,1.909 -0.358,0.735 -0.713,1.531 -1.062,2.397 V -29.291 H -4.583 V 0 Z"
           style="fill:#d2b3a8;fill-opacity:1;fill-rule:nonzero;stroke:none"
           id="path739" />
      </g>
      <g
         id="g741"
         transform="translate(522.061,1003.8555)">
        <path
           d="M 0,0 12.347,-16.616 H 7.281 L -2.734,-2.925 -5.905,-6.378 v -10.238 h -3.987 v 29.291 h 3.987 V -1.338 L 6.799,12.675 h 4.864 z"
           style="fill:#d2b3a8;fill-opacity:1;fill-rule:nonzero;stroke:none"
           id="path743" />
      </g>
      <path
         d="m 566.461,1020.062 h 3.978 V 982.61 h -3.978 z m -17.979,-24.21 h 6.116 v 17.386 h -6.116 z m -8.164,-3.29 v 3.29 h 4.267 v 17.385 h -3.862 v 3.293 h 21.637 v -3.293 h -3.861 v -17.266 c 0.858,0.056 1.728,0.109 2.593,0.166 0.872,0.054 1.738,0.134 2.596,0.242 l 0.277,-3.246 c -1.954,-0.219 -4.084,-0.367 -6.392,-0.45 -2.301,-0.083 -4.882,-0.121 -7.721,-0.121 z"
         style="fill:#d2b3a8;fill-opacity:1;fill-rule:nonzero;stroke:none"
         id="path745" />
      <path
         d="m 587.492,1005.479 h 16.495 v 4.589 h -16.495 z m 20.433,-3.452 h -24.376 v 16.576 h 3.943 v -5.123 h 16.495 v 5.161 h 3.938 z m -14.194,-19.418 v 11.903 h -15.005 v 3.412 h 34.026 v -3.412 h -15.001 v -11.903 z"
         style="fill:#d2b3a8;fill-opacity:1;fill-rule:nonzero;stroke:none"
         id="path747" />
      <g
         id="g749"
         transform="translate(643.8794,982.6094)">
        <path
           d="M 0,0 V 37.452 H 3.939 V 23.643 H 9.487 V 20.149 H 3.939 V 0 Z m -23.816,33.921 h 18.751 v -5.608 c 0,-0.676 -0.017,-1.487 -0.042,-2.439 -0.035,-0.945 -0.086,-1.937 -0.166,-2.961 -0.078,-1.031 -0.18,-2.049 -0.3,-3.052 -0.119,-0.999 -0.26,-1.907 -0.422,-2.718 l -3.901,0.486 c 0.187,0.973 0.341,1.95 0.465,2.928 0.119,0.973 0.213,1.905 0.278,2.801 0.068,0.89 0.111,1.712 0.119,2.456 0.013,0.748 0.026,1.364 0.026,1.85 v 2.762 H -23.816 Z M -2.052,9.263 C -3.716,9.099 -5.287,8.962 -6.759,8.855 -8.231,8.748 -9.836,8.659 -11.568,8.588 -13.294,8.522 -15.277,8.479 -17.518,8.447 -19.755,8.42 -22.456,8.409 -25.622,8.409 v 3.493 h 3.863 c 1.202,0 2.334,0.013 3.379,0.043 v 11.211 h 3.936 v -11.13 c 1.215,0.026 2.338,0.058 3.383,0.098 1.04,0.041 2.04,0.096 2.996,0.164 0.952,0.07 1.891,0.143 2.817,0.225 0.926,0.081 1.881,0.161 2.872,0.243 z"
           style="fill:#d2b3a8;fill-opacity:1;fill-rule:nonzero;stroke:none"
           id="path751" />
      </g>
      <g
         id="g753"
         transform="translate(527.6519,1159.1187)">
        <path
           d="m 0,0 c -30.82,0 -55.892,-25.072 -55.892,-55.892 0,-30.823 25.072,-55.898 55.892,-55.898 30.821,0 55.897,25.075 55.897,55.898 C 55.897,-25.072 30.821,0 0,0 m 0,-117.836 c -34.157,0 -61.943,27.788 -61.943,61.944 0,34.155 27.786,61.941 61.943,61.941 34.154,0 61.944,-27.786 61.944,-61.941 0,-34.156 -27.79,-61.944 -61.944,-61.944"
           style="fill:#d2b3a8;fill-opacity:1;fill-rule:nonzero;stroke:none"
           id="path755" />
      </g>
      <g
         id="g757"
         transform="translate(481.6265,1086.25)">
        <path
           d="m 0,0 c -1.668,0 -3.026,1.354 -3.026,3.025 v 76.629 c 0,1.3 0.828,2.456 2.061,2.868 1.234,0.415 2.591,-0.004 3.375,-1.042 L 53.208,14.369 c 1.008,-1.334 0.747,-3.228 -0.593,-4.236 -1.327,-1.007 -3.222,-0.747 -4.233,0.585 L 3.021,70.647 V 3.025 C 3.021,1.354 1.669,0 0,0"
           style="fill:#d2b3a8;fill-opacity:1;fill-rule:nonzero;stroke:none"
           id="path759" />
      </g>
      <g
         id="g761"
         transform="translate(532.9058,1041.6387)">
        <path
           d="M 0,0 C -1.677,0 -3.021,1.356 -3.021,3.021 V 105.61 c 0,1.672 1.344,3.028 3.021,3.028 1.669,0 3.021,-1.356 3.021,-3.028 V 3.021 C 3.021,1.356 1.669,0 0,0"
           style="fill:#d2b3a8;fill-opacity:1;fill-rule:nonzero;stroke:none"
           id="path763" />
      </g>
      <g
         id="g765"
         transform="translate(532.897,1088.6313)">
        <path
           d="m 0,0 c -1.566,0 -2.889,1.208 -3.008,2.793 -0.129,1.662 1.109,3.115 2.779,3.248 0.126,0.008 6.533,0.597 14.295,4.841 10.421,5.691 18.261,14.935 23.314,27.475 0.623,1.552 2.386,2.3 3.935,1.675 1.549,-0.623 2.299,-2.388 1.677,-3.937 C 35.968,18.664 24.803,9.788 16.679,5.416 7.788,0.633 0.542,0.032 0.238,0.008 0.158,0 0.077,0 0,0"
           style="fill:#d2b3a8;fill-opacity:1;fill-rule:nonzero;stroke:none"
           id="path767" />
      </g>
      <g
         id="g769"
         transform="translate(589.5874,1051.3022)">
        <path
           d="m 0,0 c -1.412,0 -2.676,0.997 -2.961,2.437 -2.812,14.102 -9.273,25.783 -19.205,34.719 -7.451,6.7 -14.186,9.265 -14.24,9.293 -1.571,0.582 -2.365,2.322 -1.784,3.884 0.585,1.565 2.317,2.361 3.879,1.785 C -33.095,51.67 -4.417,40.689 2.967,3.615 3.295,1.978 2.232,0.384 0.589,0.06 0.393,0.02 0.196,0 0,0"
           style="fill:#d2b3a8;fill-opacity:1;fill-rule:nonzero;stroke:none"
           id="path771" />
      </g>
      <g
         id="g773"
         transform="translate(544.312,1144.2271)">
        <path
           d="m 0,0 h -22.822 c -1.664,0 -3.022,1.353 -3.022,3.022 0,1.672 1.358,3.027 3.022,3.027 L 0,6.049 C 1.674,6.049 3.031,4.694 3.031,3.022 3.031,1.353 1.674,0 0,0"
           style="fill:#d2b3a8;fill-opacity:1;fill-rule:nonzero;stroke:none"
           id="path775" />
      </g>
    </g>
  </g>
</svg>
